<svg width="52" height="55" viewBox="0 0 52 55" fill="none" xmlns="http://www.w3.org/2000/svg">
<path d="M10.4 7.33331C8.48467 7.33331 6.93333 8.97415 6.93333 11V44C6.93333 46.0258 8.48467 47.6666 10.4 47.6666H41.6C43.5153 47.6666 45.0667 46.0258 45.0667 44V11C45.0667 8.97415 43.5153 7.33331 41.6 7.33331H10.4ZM18.051 18.5661H21.4872L27.5641 36.6523H24.2836L22.838 32.026H16.5445L15.0753 36.6523H11.9844L18.051 18.5661ZM19.6016 22.0143L17.2555 29.4694H22.1271L19.8047 22.0143H19.6016ZM34.9341 22.666C38.6313 22.666 40.8484 25.2591 40.8484 29.584V30.5866H31.7958V30.7477C31.8669 33.0284 33.1098 34.4573 35.0424 34.4573C36.4984 34.4573 37.5072 33.8939 37.9336 32.8782H40.7164C40.1617 35.3734 38.0137 36.928 34.9578 36.928C31.1427 36.928 28.8438 34.2564 28.8438 29.8454C28.8438 25.4344 31.1797 22.666 34.9341 22.666ZM34.924 25.1295C33.1698 25.1295 31.9377 26.4594 31.806 28.4632H37.9099C37.8492 26.4337 36.6868 25.1295 34.924 25.1295Z" fill="#0077B6"/>
</svg>
