<svg width="52" height="55" viewBox="0 0 52 55" fill="none" xmlns="http://www.w3.org/2000/svg">
<path d="M44.4166 11.4583H27.0833V43.5416H44.4166C45.0157 43.5416 45.5 43.0295 45.5 42.3958V12.6041C45.5 11.9705 45.0157 11.4583 44.4166 11.4583Z" fill="#0077B6"/>
<path d="M34.6666 17.1875H42.25V20.625H34.6666V17.1875ZM34.6666 28.6458H42.25V32.0833H34.6666V28.6458ZM34.6666 34.375H42.25V37.8125H34.6666V34.375ZM34.6666 22.9167H42.25V26.3542H34.6666V22.9167ZM27.0833 17.1875H32.5V20.625H27.0833V17.1875ZM27.0833 28.6458H32.5V32.0833H27.0833V28.6458ZM27.0833 34.375H32.5V37.8125H27.0833V34.375ZM27.0833 22.9167H32.5V26.3542H27.0833V22.9167Z" fill="white"/>
<path d="M29.25 48.125L6.5 43.5417V11.4583L29.25 6.875V48.125Z" fill="#0077B6"/>
<path d="M20.7231 35.5209L18.1112 30.2947C18.0115 30.0988 17.9097 29.7413 17.8035 29.2199H17.7634C17.7136 29.4663 17.5966 29.8398 17.4124 30.3417L14.7897 35.5209H10.7196L15.5534 27.4989L11.1302 19.4792H15.2869L17.4547 24.2871C17.6237 24.6664 17.7754 25.1178 17.9097 25.638H17.953C18.0375 25.3275 18.1957 24.8589 18.4286 24.2401L20.8401 19.4792H24.648L20.0991 27.4301L24.7748 35.5186H20.7231V35.5209Z" fill="white"/>
</svg>
