<svg width="52" height="55" viewBox="0 0 52 55" fill="none" xmlns="http://www.w3.org/2000/svg">
<path d="M33.5075 2.26874L28.9575 4.15936L29.77 8.31874C29.4531 8.65389 29.1159 9.04061 28.7625 9.45311L24.8625 8.52499L22.945 13.2687L26.26 15.6062C26.2234 16.1863 26.2234 16.7793 26.26 17.3594L22.8475 19.5594L24.635 24.3719L28.47 23.5469C28.8153 23.9851 29.1931 24.3848 29.6075 24.75L28.73 28.8062L33.2475 30.8344L35.4575 27.3281C36.01 27.3668 36.53 27.3668 37.0825 27.3281L39.195 30.9375L43.745 29.0469L42.8675 24.6469C43.2778 24.2859 43.6312 23.8734 43.9725 23.4437L47.9375 24.5094L49.8875 19.6969L46.4425 17.4625C46.475 16.891 46.475 16.3496 46.4425 15.7781L49.855 13.5437L48.0675 8.73124L44.1025 9.65936C43.7612 9.22538 43.3753 8.81718 42.965 8.45624L43.8425 4.39999L39.325 2.37186L37.2125 5.87811C36.6681 5.82225 36.1196 5.79218 35.5875 5.84374L33.5075 2.26874ZM36.4 12.1C38.6993 12.1 40.56 14.068 40.56 16.5C40.56 18.932 38.6993 20.9 36.4 20.9C34.1006 20.9 32.24 18.932 32.24 16.5C32.24 14.068 34.1006 12.1 36.4 12.1ZM14.0725 22L13.4225 26.4C12.8496 26.5933 12.2687 26.8683 11.7 27.1906L8.22246 24.5094L4.58246 28.3594L6.98746 32.0719C6.69902 32.6734 6.47152 33.2793 6.27246 33.8937L2.07996 34.7187V40.0812L6.23996 40.8719C6.42277 41.482 6.67871 42.1223 6.98746 42.7281L4.45246 46.3031L8.09246 50.1531L11.6025 47.6094C12.1671 47.9144 12.7481 48.1551 13.325 48.3656L13.975 52.8H19.0775L19.825 48.4C20.4059 48.2066 21.0071 47.9359 21.58 47.6094L25.0575 50.2906L28.6975 46.4406L26.195 42.7281C26.4793 42.1308 26.6784 41.5164 26.8775 40.9062L31.2 40.0812V34.6844L26.9425 33.9969C26.7596 33.391 26.4996 32.7723 26.195 32.175L28.6975 28.4969L25.09 24.5094L21.5475 27.1906C20.9909 26.8898 20.4303 26.6449 19.8575 26.4344L19.2075 22H14.0725ZM16.64 33C18.9271 33 20.8 34.9808 20.8 37.4C20.8 39.8191 18.9271 41.8 16.64 41.8C14.3528 41.8 12.48 39.8191 12.48 37.4C12.48 34.9808 14.3528 33 16.64 33Z" fill="#0077B6"/>
</svg>
