<svg width="52" height="55" viewBox="0 0 52 55" fill="none" xmlns="http://www.w3.org/2000/svg">
<path d="M44.0752 6.1105C43.7459 5.72183 43.2761 5.5 42.7839 5.5H9.21614C8.72387 5.5 8.25414 5.72183 7.92481 6.1105C7.59547 6.49917 7.43947 7.018 7.49321 7.535L11.31 43.8772C11.3863 44.616 11.8803 45.2338 12.5563 45.4373L25.5216 49.3552C25.6776 49.4028 25.8388 49.4267 25.9983 49.4267C26.1577 49.4267 26.3189 49.4028 26.4749 49.3552L39.4403 45.4373C40.1163 45.2338 40.6085 44.616 40.6865 43.8772L44.5051 7.535C44.5605 7.018 44.4045 6.49917 44.0752 6.1105ZM35.7569 19.1217H20.2783L20.6457 23.782H35.3843L34.2784 37.5503L26.0052 40.3333L25.9237 40.3058L17.7424 37.5467L17.2952 31.9367H21.3027L21.4777 34.1165L26.0485 35.1817L30.5396 34.1147L31.0163 28.2242H16.9936L15.9085 14.6667H36.1175L35.7569 19.1217Z" fill="#0077B6"/>
</svg>
