<svg width="52" height="55" viewBox="0 0 52 55" fill="none" xmlns="http://www.w3.org/2000/svg">
<path d="M47.085 2.55751C46.8874 2.32981 46.6097 2.20001 46.3175 2.20001H5.68258C5.39034 2.20001 5.11266 2.32981 4.91506 2.55751C4.71746 2.78521 4.62074 3.09101 4.64674 3.39791L8.30754 46.7676C8.34602 47.2208 8.6445 47.6025 9.05842 47.7279L25.7088 52.7582C25.8014 52.7857 25.8981 52.8 25.9938 52.8C26.0895 52.8 26.1862 52.7857 26.2787 52.7582L42.9437 47.7279C43.3576 47.6025 43.6561 47.2208 43.6946 46.7676L47.3533 3.39791C47.3793 3.09101 47.2815 2.78521 47.085 2.55751ZM12.48 31.9044L19.76 34.0406V12.1H23.92V40.7L12.48 37.3439V31.9044ZM39.5762 24.2L38.48 37.675L28.08 40.7V35.6389L35.1 33.5984L35.36 29.4734L28.08 30.8V12.1H40.56L40.2012 16.5H32.24V25.3L39.5762 24.2Z" fill="#0077B6"/>
</svg>
