<svg width="52" height="55" viewBox="0 0 52 55" fill="none" xmlns="http://www.w3.org/2000/svg">
<path d="M26 50.4166C37.9661 50.4166 47.6666 40.1565 47.6666 27.5C47.6666 14.8435 37.9661 4.58331 26 4.58331C14.0338 4.58331 4.33331 14.8435 4.33331 27.5C4.33331 40.1565 14.0338 50.4166 26 50.4166Z" fill="#0077B6"/>
<path d="M26 48.125C36.7696 48.125 45.5 38.8909 45.5 27.5C45.5 16.1091 36.7696 6.875 26 6.875C15.2304 6.875 6.5 16.1091 6.5 27.5C6.5 38.8909 15.2304 48.125 26 48.125Z" fill="#0077B6"/>
<path d="M32.1641 36.6094C32.1641 41.5937 28.8166 45.7531 24.375 46.7156L23.7791 46.8302C14.6575 45.6843 7.58331 37.4687 7.58331 27.5C7.58331 16.7406 15.8275 8.02081 26 8.02081C26.1841 8.02081 26.3791 8.02081 26.5633 8.03227C22.7716 9.44165 20.0416 13.2573 20.0416 17.7604C20.0416 19.4677 20.4316 21.0833 21.1358 22.5041C22.0675 24.4062 23.6275 25.8729 25.4366 26.8354L26.7583 27.5344C28.5675 28.4969 30.1383 29.9635 31.07 31.8656C31.7633 33.2864 32.1641 34.9021 32.1641 36.6094Z" fill="#0077B6"/>
<path d="M26 6.875C15.2306 6.875 6.5 16.1093 6.5 27.5C6.5 37.4355 13.143 45.7256 21.9863 47.6827L21.9992 47.7549L22.1715 47.7217C23.4097 47.9829 24.6892 48.125 26 48.125C36.7694 48.125 45.5 38.8907 45.5 27.5C45.5 16.1093 36.7694 6.875 26 6.875ZM8.66667 27.5C8.66667 18.4078 14.9641 10.8614 23.1833 9.43135C20.9181 11.4515 19.5 14.4673 19.5 17.7604C19.5 19.5009 19.8976 21.2311 20.6505 22.7654C21.5876 24.6767 23.1595 26.2614 25.1973 27.3442L26.5178 28.0466C28.3498 29.0228 29.7581 30.4345 30.5901 32.1303C31.2726 33.5214 31.6182 35.027 31.6182 36.6071C31.6182 40.7836 29.0723 44.4641 25.4313 45.8013C16.1384 45.4816 8.66667 37.4057 8.66667 27.5ZM28.0638 45.6912C30.8793 43.7193 32.7015 40.3425 32.7015 36.6082C32.7015 34.8666 32.3039 33.1375 31.551 31.6032C30.6139 29.692 29.042 28.1073 27.0043 27.0245L25.6837 26.3221C23.8507 25.3458 22.4434 23.9353 21.6114 22.2383C20.9289 20.8461 20.5833 19.3405 20.5833 17.7604C20.5833 14.1247 22.5128 10.8659 25.4193 9.1976C25.6133 9.19073 25.8039 9.16667 26 9.16667C35.5572 9.16667 43.3333 17.3915 43.3333 27.5C43.3333 36.8695 36.6503 44.6073 28.0638 45.6912Z" fill="white"/>
<path d="M41.6628 31.5425C40.8222 30.4803 39.4767 29.4467 38.6198 27.9503C38.4995 27.7395 38.5623 27.4839 38.766 27.3694C39.8656 26.746 40.0595 26.8595 41.1667 26.3541C40.0833 25.2083 38.9599 24.7958 37.1789 24.3214C36.8301 24.2447 36.6297 23.9353 36.5712 23.595C36.4758 23.2249 36.2733 22.5981 36.0609 22.0974C34.5215 18.8077 32.6029 14.5062 28.7094 14.1831C28.4527 14.1797 28.2078 14.0697 28.0378 13.8886C27.547 13.3936 26.8602 12.7806 26.2286 12.6798C26.104 12.6924 26.1668 12.6477 26.0704 12.7416C25.818 13.0545 25.8689 13.0659 26.0423 13.4635C26.2763 13.8863 26.7226 14.3699 27.1613 14.8477C27.6066 15.4561 27.2978 16.3464 27.5903 17.0294C27.7106 17.514 27.963 18.087 28.2436 18.4376C28.379 18.6221 28.4202 18.8558 28.3779 19.0678C28.0659 20.6456 27.846 22.3472 28.1483 23.9273C28.1548 24.0957 28.3108 24.1587 28.4256 24.098C28.4613 24.0682 28.4603 24.0888 28.5989 23.831C28.769 23.43 29.9813 20.9767 30.3333 21.7708C30.8458 23.5331 31.5575 26.9614 33.0655 28.0213C33.1294 28.05 33.0796 28.1611 33.0168 28.1233C31.4416 27.2628 30.1665 25.0502 29.7906 23.5583C29.4981 23.5847 29.2359 23.8356 29.0886 24.1232C28.8665 24.9471 27.7236 24.9895 27.5188 24.1083C27.4365 23.7669 27.3693 23.4208 27.3379 23.0713C27.2177 21.7995 27.2935 19.9169 27.5665 18.967C26.8038 18.0961 26.377 16.4152 26.4778 15.5352C26.0303 15.0562 25.5602 14.5853 25.2103 13.9952C24.5516 13.1083 25.1279 11.5523 26.2578 11.6084C27.2588 11.6966 28.0692 12.4185 28.782 13.0991C29.5718 13.0247 31.1361 13.6079 32.0125 14.2347C33.9993 15.5994 35.0448 17.9426 36.1801 20.0532C36.6232 21.0111 37.4173 22.6313 37.3967 23.4036C39.4182 24.0659 41.7029 24.8669 42.8556 26.8938C42.8762 26.9339 42.8567 26.9855 42.8144 26.9981L39.6728 28.0408L41.7538 31.4783C41.7896 31.5356 41.7029 31.6066 41.6628 31.5425Z" fill="white"/>
<path d="M29.2998 15.6842L30.2022 17.0466C30.2022 17.0466 31.2325 15.5031 29.2998 15.6842Z" fill="white"/>
<path d="M10.5755 22.998C11.4162 24.0602 12.7617 25.0937 13.6186 26.5902C13.7388 26.801 13.676 27.0565 13.4723 27.1711C12.3728 27.7933 12.1799 27.6799 11.0728 28.1863C12.1561 29.3322 13.2795 29.7447 15.0605 30.219C15.4093 30.2958 15.6098 30.6052 15.6683 30.9455C15.7636 31.3156 15.9662 31.9424 16.1785 32.4431C17.7179 35.7328 19.6365 40.0343 23.53 40.3574C23.7868 40.3608 24.0316 40.4708 24.2017 40.6519C24.6924 41.1469 25.3793 41.7599 26.0108 41.8607C26.1354 41.8481 26.0726 41.8928 26.169 41.7988C26.4214 41.486 26.3705 41.4746 26.1972 41.077C25.9632 40.6542 25.5168 40.1706 25.0781 39.6928C24.6328 39.0844 24.9416 38.194 24.6491 37.5111C24.5288 37.0264 24.2764 36.4535 23.9958 36.1029C23.8604 35.9184 23.8193 35.6847 23.8615 35.4727C24.1735 33.8949 24.3934 32.1933 24.0912 30.6132C24.0847 30.4448 23.9287 30.3818 23.8138 30.4425C23.7781 30.4723 23.7792 30.4517 23.6405 30.7095C23.4693 31.1082 22.2571 33.5626 21.905 32.7674C21.3926 31.0051 20.6808 27.5768 19.1728 26.5169C19.1089 26.4882 19.1588 26.3771 19.2216 26.4149C20.7968 27.2754 22.0718 29.488 22.4478 30.9799C22.7403 30.9535 23.0024 30.7026 23.1498 30.415C23.3718 29.5911 24.5148 29.5487 24.7195 30.4299C24.8018 30.7713 24.869 31.1174 24.9004 31.4669C25.0207 32.7387 24.9448 34.6213 24.6718 35.5712C25.4345 36.4421 25.8613 38.123 25.7606 39.003C26.208 39.482 26.6782 39.9529 27.0281 40.543C27.6868 41.4299 27.1104 42.9859 25.9805 42.9298C24.9795 42.8415 24.1692 42.1197 23.4563 41.439C22.6666 41.5135 21.1023 40.9303 20.2258 40.3035C18.239 38.9388 17.1936 36.5956 16.0583 34.485C15.6152 33.5271 14.8211 31.9069 14.8417 31.1346C12.8202 30.4723 10.5354 29.6713 9.38276 27.6444C9.36218 27.6043 9.38168 27.5527 9.42393 27.5401L12.5656 26.4974L10.4845 23.0599C10.4488 23.0049 10.5354 22.935 10.5755 22.998Z" fill="white"/>
<path d="M22.9385 38.8564L22.0361 37.494C22.0361 37.494 21.0058 39.0385 22.9385 38.8564Z" fill="white"/>
</svg>
