<svg width="52" height="55" viewBox="0 0 52 55" fill="none" xmlns="http://www.w3.org/2000/svg">
<path d="M44.4166 11.4583H27.0833V43.5416H44.4166C45.0157 43.5416 45.5 43.0295 45.5 42.3958V12.6041C45.5 11.9705 45.0157 11.4583 44.4166 11.4583Z" fill="#0077B6"/>
<path d="M27.0833 17.1887H42.25V19.4792H27.0833V17.1887ZM27.0833 21.7708H42.25V24.0625H27.0833V21.7708ZM27.0833 26.3553H42.25V28.647H27.0833V26.3553ZM27.0833 30.9387H42.25V33.2292H27.0833V30.9387ZM27.0833 35.5208H42.25V37.8137H27.0833V35.5208Z" fill="white"/>
<path d="M29.25 48.125L6.5 43.5417V11.4583L29.25 6.875V48.125Z" fill="#0077B6"/>
<path d="M22.9309 35.5346H19.9875L18.0353 25.2358C17.9292 24.6892 17.8674 24.0946 17.8468 23.43H17.8122C17.7656 24.1599 17.693 24.7614 17.5987 25.2358L15.5946 35.5346H12.532L9.43365 19.4769H12.3316L13.9956 30.1652C14.0627 30.6281 14.1158 31.24 14.1505 32.0065H14.196C14.2166 31.4359 14.3022 30.8023 14.4376 30.1216L16.5717 19.4757H19.4122L21.346 30.2511C21.4132 30.6499 21.4749 31.2205 21.5302 31.9825H21.5637C21.5854 31.3924 21.6428 30.7965 21.7371 30.1915L23.3653 19.4757H26.039L22.9309 35.5346Z" fill="white"/>
</svg>
